<?xml version="1.0" encoding="utf-8"?>
<!-- Generator: Adobe Illustrator 17.1.0, SVG Export Plug-In . SVG Version: 6.00 Build 0)  -->
<!DOCTYPE svg PUBLIC "-//W3C//DTD SVG 1.1//EN" "http://www.w3.org/Graphics/SVG/1.1/DTD/svg11.dtd">
<svg version="1.1" id="レイヤー_1" xmlns="http://www.w3.org/2000/svg" xmlns:xlink="http://www.w3.org/1999/xlink" x="0px"
	 y="0px" viewBox="0 0 261 254" enable-background="new 0 0 261 254" xml:space="preserve">
<path fill="#ECACB5" d="M220.8,149.7c1.6,5.4,17.1,63-70.7,84.2c-45.3,10.9-92.1-34.5-81.5-73.8c16.4-61,34.3-83.8,73.8-73.8
	C193.5,99.1,211.5,118.2,220.8,149.7z"/>
<path fill="#F9DB57" d="M153.7,40.9c0,0,3.4-19,9.2-19.8c2.7-0.4,5.6,7.6,5.6,7.6s2,8.5,2.8,8.7c4,0.9,9.9,5,11,6.8
	c0.5,0.4,6.1-1,6.6-1.3s6.3-2.7,9.2-0.9c3,1.8-0.6,5.8-0.6,5.8l-6.7,9.7c0,0,2.3,13.7-9.9,18.1c-8.1,2.8-15.2-1.4-17.9-2.7
	c-1.5-1.3-18.1-7-17.4-17.6S153.7,40.9,153.7,40.9z"/>
<path fill="#99CFE5" d="M66.3,69c0,0-14-13.3-11.5-18.6C56,48,64.3,50,64.3,50s8.2,3,8.8,2.4c3-2.9,9.6-5.5,11.7-5.5
	c0.6-0.1,2.6-5.6,2.6-6.2c0-0.6,1.2-6.7,4.3-8.2c3.1-1.5,4.5,3.7,4.5,3.7l4.4,10.9c0,0,12.7,5.6,9.6,18.2
	c-2.1,8.3-9.5,11.9-12.1,13.5c-1.9,0.5-15.8,11.2-24.3,4.9S66.3,69,66.3,69z"/>
<path fill="#95DFD6" d="M22.9,128.1c0,0-17.9-7.3-17.5-13.2c0.2-2.7,8.6-3.9,8.6-3.9s8.8-0.2,9.1-0.9c1.8-3.8,7-8.6,9-9.4
	c0.5-0.4,0.3-6.2,0.1-6.7s-1.3-6.7,1-9.2c2.4-2.5,5.6,1.8,5.6,1.8l8,8.6c0,0,13.9,0.6,15.6,13.5c1,8.5-4.5,14.5-6.4,16.9
	c-1.6,1.2-10.6,16.2-20.9,13.4C25,136.2,22.9,128.1,22.9,128.1z"/>
<path fill="#C0D860" d="M211.7,94.3c0,0-5.7-18.5-0.9-21.9c2.2-1.6,8.5,4.2,8.5,4.2s5.7,6.6,6.5,6.4c4-1,11.1-0.1,12.9,1
	c0.6,0.2,5-3.6,5.3-4.2c0.3-0.5,4.3-5.3,7.8-5.1c3.5,0.2,2.1,5.5,2.1,5.5L252.3,92c0,0,8.3,11.1-0.5,20.6
	c-5.9,6.2-14.1,5.7-17.1,5.8c-1.9-0.5-19.3,2.1-23.6-7.6C206.8,101.1,211.7,94.3,211.7,94.3z"/>
</svg>
